<?xml version="1.0" encoding="utf-8"?>
<!-- Generator: Adobe Illustrator 25.3.1, SVG Export Plug-In . SVG Version: 6.00 Build 0)  -->
<svg version="1.1" id="레이어_1" xmlns="http://www.w3.org/2000/svg" xmlns:xlink="http://www.w3.org/1999/xlink" x="0px"
	 y="0px" viewBox="0 0 429 429" style="enable-background:new 0 0 429 429;" xml:space="preserve">
<style type="text/css">
	.st0{fill:#2A96EE;}
</style>
<path class="st0" d="M214.5,1c-86.8,0-165,52.2-198.2,132.4c-33.2,80.2-14.8,172.4,46.5,233.8c83.8,83.8,219.6,83.8,303.3,0
	c83.8-83.8,83.8-219.6,0-303.3C326,23.5,271.4,0.8,214.5,1z M322.1,225.5h-95.5v100.5c0,5.5-4.5,10-10,10c-5.5,0-10-4.5-10-10V225.5
	H106.3c-5.5,0-10-4.5-10-10s4.5-10,10-10h100.5V110c0-5.5,4.5-10,10-10c5.5,0,10,4.5,10,10v95.5h95.5c5.5,0,10,4.5,9.9,10
	C332.1,221,327.6,225.5,322.1,225.5z"/>
</svg>
