<?xml version="1.0" encoding="utf-8"?>
<!-- Generator: Adobe Illustrator 25.3.1, SVG Export Plug-In . SVG Version: 6.00 Build 0)  -->
<svg version="1.1" id="레이어_1" xmlns="http://www.w3.org/2000/svg" xmlns:xlink="http://www.w3.org/1999/xlink" x="0px"
	 y="0px" viewBox="0 0 124.6 131" style="enable-background:new 0 0 124.6 131;" xml:space="preserve">
<style type="text/css">
	.st0{fill:#EEEEEE;}
	.st1{fill:#41AC4A;}
</style>
<path class="st0" d="M98.2,47.5v57.1c0,3.9-3.1,7-7,7H22c-3.9,0-7-3.1-7-7V35.4c0-3.9,3.1-7,7-7h61.5c2.3-2.6,4.6-5.2,7.2-7.7H22
	c-8.1,0-14.7,6.6-14.7,14.7v69.2c0,8.1,6.6,14.7,14.7,14.7h69.2c8.1,0,14.7-6.6,14.7-14.7V38.8C103.1,41.6,100.6,44.6,98.2,47.5z"/>
<path class="st1" d="M60.7,99.4c-2.9,0-5.5-1.6-6.9-4.1C43,75.8,23.4,64.8,23.2,64.7c-1.9-1-3.2-2.7-3.8-4.7c-0.6-2-0.4-4.2,0.6-6
	c1.4-2.6,4.1-4.1,7-4.1c1.3,0,2.6,0.3,3.8,1C31.3,51,43.3,57.7,55,70.3l3.8,4.1l2.5-5.1c7.8-16,21.6-38.6,43.2-55.9
	c1.4-1.1,3.1-1.7,4.9-1.7c2.4,0,4.7,1.1,6.2,3c2.7,3.4,2.2,8.4-1.2,11.1c-32.9,26.3-46,67.6-46.1,68c-0.9,3-3.6,5.2-6.8,5.5
	C61.3,99.3,61,99.4,60.7,99.4z"/>
</svg>
