<?xml version="1.0" encoding="utf-8"?>
<!-- Generator: Adobe Illustrator 25.3.1, SVG Export Plug-In . SVG Version: 6.00 Build 0)  -->
<svg version="1.1" xmlns="http://www.w3.org/2000/svg" xmlns:xlink="http://www.w3.org/1999/xlink" x="0px" y="0px"
	 viewBox="0 0 384.9 154.7" style="enable-background:new 0 0 384.9 154.7;" xml:space="preserve">
<style type="text/css">
	.st0{fill:#202020;stroke:#202020;stroke-width:1.1434;stroke-linejoin:round;stroke-miterlimit:10;}
	.st1{fill:#F5F5F3;stroke:#202020;stroke-width:1.1434;stroke-linejoin:round;stroke-miterlimit:10;}
	.st2{fill:#202020;}
	.st3{fill:none;stroke:#202020;stroke-width:0.6108;stroke-linecap:round;stroke-linejoin:round;stroke-miterlimit:10;}
	.st4{fill:#F5F5F3;stroke:#202020;stroke-width:0.8224;stroke-linecap:round;stroke-linejoin:round;stroke-miterlimit:10;}
	.st5{fill:none;stroke:#202020;stroke-width:0.4746;stroke-linecap:round;stroke-linejoin:round;stroke-miterlimit:10;}
	.st6{fill:none;stroke:#202020;stroke-width:1.1434;stroke-linejoin:round;stroke-miterlimit:10;}
	.st7{fill:#202020;stroke:#202020;stroke-width:1.154;stroke-linejoin:round;stroke-miterlimit:10;}
	.st8{fill:#F5F5F3;stroke:#202020;stroke-width:1.0227;stroke-linejoin:round;stroke-miterlimit:10;}
	.st9{fill:#F5F5F3;stroke:#202020;stroke-width:1.0572;stroke-linejoin:round;stroke-miterlimit:10;}
	.st10{fill:none;stroke:#202020;stroke-width:0.5648;stroke-linecap:round;stroke-linejoin:round;stroke-miterlimit:10;}
	.st11{fill:#F5F5F3;stroke:#202020;stroke-width:1.154;stroke-linejoin:round;stroke-miterlimit:10;}
	.st12{fill:#F5F5F3;stroke:#202020;stroke-width:0.8524;stroke-linecap:round;stroke-linejoin:round;stroke-miterlimit:10;}
	.st13{fill:none;stroke:#202020;stroke-width:0.4919;stroke-linecap:round;stroke-linejoin:round;stroke-miterlimit:10;}
</style>
<g id="BACKGROUND">
</g>
<g id="OBJECTS">
	<g>
		<g>
			<path class="st0" d="M246.7,116.2l-31.6-15h-14.7H198h-14.7l-31.6,15c0,0-18.5,6.8-16.9,26.5H198h2.3h63.3
				C265.5,123.1,246.7,116.2,246.7,116.2z"/>
			<path class="st1" d="M215.3,101.1L215.3,101.1V67.4h-32v33.7l-7.9,3.8c0,0,0.6,15,24.2,15.3c23.6,0.3,26-14,26-14L215.3,101.1z"
				/>
			<path class="st2" d="M183.6,78c0,0,2.7,13.6,14.5,15.2c13.6,1.8,17.2-14.8,17.2-14.8s-6,7.5-15.5,7.6
				C189.2,85.9,183.6,78,183.6,78z"/>
		</g>
		<g>
			<path class="st2" d="M175.4,56.9c0,0,0.5-7.4-5.4-10.7c-4.9-2.8-5.7-8.1-3.4-12.1c0.5-0.9,1.2-1.7,2-2.3c0.5-0.4,1.2-1.2,0.7-2.8
				c-0.7-2.2-0.2-4.4,0.8-5.5c1.2-1.2,2.2-2.6,5.9-2.1c4.5,0.6,3.2-4.3,3.1-7.9c-0.1-5.3,9.2-9.2,18.7-0.3c0,0,1.5,2.2,6.5,0.8
				c5-1.4,15.1-4.5,22.4,1.5s0.1,12.4,2.6,17.3c2.5,4.9,4.7,9.4-0.7,13.6c-5.5,4.2-5.4,13.2-5.4,13.2L175.4,56.9z"/>
			<g>
				<path class="st1" d="M222.1,56c0,0,2.2-3.4,6.6-1.7c4.4,1.7,2.4,12.5-4.2,13.9c0,0-2.4,0.5-4.3-1.1C220.2,67,221.8,59,222.1,56z
					"/>
				<g>
					<g>
						<path class="st3" d="M227.8,58c0,0-3.7-1.2-6.4,4.2"/>
					</g>
					<path class="st3" d="M223.3,59.6c0,0,4.1,2.2,1.4,5.4"/>
				</g>
			</g>
			<g>
				<path class="st1" d="M176.6,56c0,0-2.2-3.4-6.6-1.7c-4.4,1.7-2.4,12.5,4.2,13.9c0,0,2.4,0.5,4.3-1.1C178.5,67,176.8,59,176.6,56
					z"/>
				<g>
					<g>
						<path class="st3" d="M170.8,58c0,0,3.7-1.2,6.4,4.2"/>
					</g>
					<path class="st3" d="M175.4,59.6c0,0-4.1,2.2-1.4,5.4"/>
				</g>
			</g>
			<path class="st1" d="M222.6,45.7c0,6.5-0.6,20.1-4.6,28.2c-3.8,7.6-10,11.7-18.1,11.9c-8.2,0.2-14.2-2.9-19.1-12.8
				s-4.6-27.3-4.6-27.3s0-23.3,23-23.3C223.3,22.6,222.6,45.7,222.6,45.7z"/>
			<g>
				<path class="st4" d="M197.7,48.2V63c0,0.2,0,0.5,0.1,0.7c0.3,0.8,1.2,1.2,2.1,1l1.8-0.5"/>
				<circle class="st2" cx="188.5" cy="54.3" r="1.8"/>
				<circle class="st2" cx="208.9" cy="54.3" r="1.8"/>
				<line class="st5" x1="191.7" y1="56.2" x2="187.3" y2="59.1"/>
				<line class="st5" x1="206.1" y1="56.2" x2="210" y2="59.1"/>
				<path class="st4" d="M191.5,67c0,0,2.1,1.6,7.5,1.6c5,0,8.1-1.6,8.1-1.6"/>
				<path class="st5" d="M196.1,71.7c0,0,4.6-0.2,6.6-1"/>
				<path class="st2" d="M203.2,46.6l14.1,3.6c0,0-0.6-3.9-6.4-5.4C205.2,43.5,203.2,46.6,203.2,46.6z"/>
				<path class="st2" d="M194.9,46.6l-14.1,3.6c0,0,0.6-3.9,6.4-5.4C193,43.5,194.9,46.6,194.9,46.6z"/>
				<g>
					<ellipse transform="matrix(0.923 -0.3847 0.3847 0.923 -7.2266 76.2813)" class="st5" cx="187" cy="56.2" rx="8.6" ry="8.6"/>
					
						<ellipse transform="matrix(0.8965 -0.4431 0.4431 0.8965 -3.0234 99.4665)" class="st5" cx="211.3" cy="56.2" rx="8.6" ry="8.6"/>
					<path class="st5" d="M195.6,56.9c0,0,3-4.7,7.1,0"/>
				</g>
			</g>
			<path class="st2" d="M176.5,54.7c0,0,6.1-18.3-0.5-29.1l-2.5,17.3L176.5,54.7z"/>
			<path class="st2" d="M179,36.1c0,0,2.5-9.9,11.8-4.2c5.5,3.4,18.1,9.7,31.8,0.8c0,0-7.6-12.6-25.4-12.6
				C174.1,20.1,179,36.1,179,36.1z"/>
		</g>
	</g>
	<g>
		<g>
			<g>
				<path class="st1" d="M103.9,106.6L74.5,92.6H60.9h-2.1H45.1l-29.3,13.9c0,0-17.1,6.3-15.7,24.5h58.7h2.1h58.7
					C121.3,113,103.9,106.6,103.9,106.6z"/>
				<g>
					<line class="st6" x1="0.8" y1="122.7" x2="118.9" y2="122.7"/>
					<line class="st6" x1="4.5" y1="115.5" x2="115.4" y2="115.5"/>
					<line class="st6" x1="12.3" y1="108.3" x2="48.5" y2="108.3"/>
					<line class="st6" x1="26.3" y1="101.6" x2="39.8" y2="101.6"/>
					<line class="st6" x1="82.6" y1="101.6" x2="93.9" y2="101.6"/>
				</g>
				<line class="st6" x1="73.3" y1="108.3" x2="107" y2="108.3"/>
			</g>
			<path class="st1" d="M74.8,92.6L74.8,92.6V61.4H45.1v31.2l-7.3,3.5c0,0,0.6,13.9,22.5,14.2c21.9,0.3,24.1-13,24.1-13L74.8,92.6z"
				/>
			<path class="st2" d="M45.3,71.1c0,0,2.5,12.6,13.5,14.1c12.6,1.7,16-13.7,16-13.7s-5.6,7-14.4,7C50.5,78.4,45.3,71.1,45.3,71.1z"
				/>
		</g>
		<path class="st2" d="M48.2,18c0,0,4.4-9.3,19.8-5.9c10.9,2.4,15.1,10.1,16.6,14.4c0.6,1.6,0.7,3.4,0.5,5.1l-3.5,17.8L65.2,24.3
			l-15.3,1.2L48.2,18z"/>
		<g>
			<path class="st1" d="M81.1,50.7c0,0,2-3.2,6.1-1.6c4.1,1.6,2.3,11.6-3.9,12.9c0,0-2.2,0.5-4-1C79.3,60.9,80.8,53.5,81.1,50.7z"/>
			<g>
				<g>
					<path class="st3" d="M86.4,52.6c0,0-3.5-1.2-5.9,3.9"/>
				</g>
				<path class="st3" d="M82.2,54.1c0,0,3.8,2,1.3,5"/>
			</g>
		</g>
		<g>
			<path class="st1" d="M38.9,50.7c0,0-2-3.2-6.1-1.6c-4.1,1.6-2.3,11.6,3.9,12.9c0,0,2.2,0.5,4-1C40.6,60.9,39.1,53.5,38.9,50.7z"
				/>
			<g>
				<g>
					<path class="st3" d="M33.6,52.6c0,0,3.5-1.2,5.9,3.9"/>
				</g>
				<path class="st3" d="M37.8,54.1c0,0-3.8,2-1.3,5"/>
			</g>
		</g>
		<path class="st1" d="M81.5,41.2c0,6-0.6,18.7-4.3,26.2c-3.5,7-9.3,10.8-16.8,11.1c-7.6,0.2-13.2-2.7-17.7-11.8
			c-4.5-9.1-4.3-25.3-4.3-25.3s0-21.6,21.3-21.6C82.2,19.7,81.5,41.2,81.5,41.2z"/>
		<path class="st4" d="M58.4,43.6v13.7c0,0.2,0,0.4,0.1,0.6c0.3,0.7,1.1,1.1,1.9,0.9l1.7-0.4"/>
		<circle class="st2" cx="49.9" cy="49.1" r="1.6"/>
		<path class="st2" d="M70.5,49.1c0,0.9-0.7,1.6-1.6,1.6c-0.9,0-1.6-0.7-1.6-1.6c0-0.9,0.7-1.6,1.6-1.6
			C69.7,47.5,70.5,48.2,70.5,49.1z"/>
		<path class="st4" d="M52.7,61.7c0,0,1.9,1.5,7,1.5c4.6,0,7.5-1.5,7.5-1.5"/>
		<path class="st5" d="M57.9,66c0,0,2.4-0.2,4.2-0.9"/>
		<path class="st2" d="M63.4,42.1l13,3.4c0,0-0.6-3.7-5.9-5C65.2,39.1,63.4,42.1,63.4,42.1z"/>
		<path class="st2" d="M55.3,42.1l-13,3.4c0,0,0.6-3.7,5.9-5C53.5,39.1,55.3,42.1,55.3,42.1z"/>
		<path class="st2" d="M38.4,50.1L35,31.8c-0.2-1.5,0-3.1,0.6-4.5c1.6-3.5,6.3-11.4,12.6-9.2l1.6,7.5c0,0-7.9,1.6-11.1,12L38.4,50.1
			z"/>
		<path class="st2" d="M83.2,37.9c0,0-2.4-18.3-14.1-19.6c-11.7-1.3-21.5,3.9-21.5,3.9l-2.4,1.8c0,0,0.4,0.5,1.2,1.3
			c-9.3,0.9-8,14.8-8,14.8c5.7-4.3,9-9.6,10.5-12.5C54.4,32.1,65.8,39,83.2,37.9z"/>
	</g>
	<g>
		<g>
			<path class="st2" d="M331.4,102.4l32.2,0.9c-9.6-19.6-6.8-66.6-6.8-66.6l-24.9-1v0l-0.5,0l-0.5,0v0l-24.9,1c0,0,3.8,47-5.9,66.6
				L331.4,102.4z"/>
			<path class="st7" d="M320,91.1l-24.6,14.5c0,0-17.8,7.8-16.3,25.5h51.4h2.2h52.3c1.4-17.1-16.3-25.5-16.3-25.5l-25.6-14.5"/>
			<path class="st8" d="M343.1,91.2V58.3h-23v32.8l0,0L307,98.7c0,0,19.7,18.8,48.6-0.2L343.1,91.2z"/>
			<path class="st2" d="M320.1,72.6c0,0,1.9,10.3,10.9,10.5c11.9,0.2,11.7-10,11.7-10s-1.6,3-10.8,3
				C321.7,76.1,320.1,72.6,320.1,72.6z"/>
		</g>
		<circle class="st2" cx="331.4" cy="36.8" r="25.4"/>
		<g>
			<path class="st9" d="M353.8,47.4c0,0,1.9-2.9,5.7-1.5c3.8,1.5,2.1,10.7-3.6,11.9c0,0-2.1,0.4-3.7-1
				C352.2,56.8,353.6,50,353.8,47.4z"/>
			<g>
				<g>
					<path class="st10" d="M358.7,49.2c0,0-3.2-1.1-5.5,3.6"/>
				</g>
				<path class="st10" d="M354.8,50.5c0,0,3.5,1.9,1.2,4.7"/>
			</g>
		</g>
		<g>
			<path class="st9" d="M309.9,47.4c0,0-1.9-2.9-5.7-1.5c-3.8,1.5-2.1,10.7,3.6,11.9c0,0,2.1,0.4,3.7-1
				C311.5,56.8,310.1,50,309.9,47.4z"/>
			<g>
				<g>
					<path class="st10" d="M305,49.2c0,0,3.2-1.1,5.5,3.6"/>
				</g>
				<path class="st10" d="M308.9,50.5c0,0-3.5,1.9-1.2,4.7"/>
			</g>
		</g>
		<path class="st11" d="M354.1,39.4c0,6-0.6,18.4-4.5,25.8c-3.6,6.9-9.6,10.7-17.5,10.9c-7.9,0.2-13.7-2.6-18.4-11.7
			c-4.7-9-4.5-24.9-4.5-24.9s0-21.3,22.2-21.3C354.8,18.2,354.1,39.4,354.1,39.4z"/>
		<path class="st12" d="M330.2,49.1v4c0,0.2,0,0.4,0.1,0.6c0.3,0.8,1.2,1.1,2,0.9l1.3-0.3"/>
		<circle class="st2" cx="321.3" cy="45.6" r="1.7"/>
		<circle class="st2" cx="341" cy="45.6" r="1.7"/>
		<path class="st12" d="M324.2,58.6c0,0,2,1.5,7.3,1.5c4.8,0,7.8-1.5,7.8-1.5"/>
		<path class="st13" d="M329.6,63.2c0,0,2.5-0.2,4.4-1"/>
		<path class="st2" d="M326.9,38.6l-12.2,3.1c0,0,0.6-3.4,5.5-4.6C325.3,35.9,326.9,38.6,326.9,38.6z"/>
		<path class="st2" d="M334.7,38.6l12.2,3.1c0,0-0.6-3.4-5.5-4.6C336.3,35.9,334.7,38.6,334.7,38.6z"/>
		<path class="st2" d="M353.2,29.5c-0.2,0.3-0.3,0.6-0.5,1c-1.7-4.9-5.2-10.1-12.5-12.2c0,0,0,0,0,0c-13.2-5.7-18.9-2.2-18.9-2.2
			c-18.1,10.1-12.9,24.4-12.9,24.4c0.1,0,0.1,0,0.2,0c-0.1,2.5,0.3,5.1,1.3,6.9c0,0,1.4-3,2-7c14.1-0.9,21.9-10.3,25.6-16.6
			c1.6,4.3,5.4,10.3,14.2,16c0.6,4.3,2.1,7.6,2.1,7.6C356.9,41.6,353.2,29.5,353.2,29.5z"/>
	</g>
</g>
<g id="DESIGNED_BY_FREEPIK">
</g>
</svg>
